<svg xmlns="http://www.w3.org/2000/svg" width="786.16" height="786.123" viewBox="0 0 208.005 207.995"><g transform="translate(-1.096 -1.075)"><ellipse cx="105.174" cy="105.126" rx="102.53" ry="102.487" fill="red" stroke="#2b0000" stroke-width="1.526" stroke-linecap="round" stroke-linejoin="round" paint-order="stroke markers fill"/><path d="M104.363 2.098l-.812 205.245" fill="none" stroke="#000" stroke-width="1.526"/><path d="M2.26 104.678h205.556z" fill="#ff0" stroke="#000" stroke-width="1.526"/><path d="M2.688 103.285c.005-1.419.422-7.32.68-9.608C7.287 58.793 28.883 28.309 60.54 12.97c12.733-6.17 26.024-9.49 40.83-10.2l2.177-.105-.121 29.874c-.067 16.43-.176 39.188-.243 50.572l-.12 20.7H2.685l.002-.527z" fill="#ff0" stroke="#2b0000" stroke-width="3.082" stroke-linecap="round" stroke-linejoin="round" paint-order="stroke markers fill"/><path d="M2.786 102.616c.047-.657.18-2.615.295-4.35a102.068 102.068 0 0 1 20.017-54.22c5.362-7.183 12.578-14.52 19.568-19.893C59.473 11.235 79.588 3.878 100.728 2.918l2.82-.128-.12 14.897c-.067 8.194-.165 27.89-.22 43.77-.053 15.88-.15 31.907-.213 35.614l-.117 6.74H2.7z" fill="#ff0" stroke="#2b0000" stroke-width="3.082" stroke-linecap="round" stroke-linejoin="round" paint-order="stroke markers fill"/><path d="M104.906 70.97c.067-18.062.176-40.83.243-50.597l.12-17.757 2.988.13c3.453.15 8.698.583 10.639.878 7.748 1.178 12.839 2.38 19.225 4.541 21.444 7.258 40.023 21.58 52.51 40.482 7.362 11.146 12.479 23.645 15.105 36.903.976 4.926 1.824 12.59 1.824 16.483v1.778H104.784z" fill="#2b0000" stroke="#2b0000" stroke-width="3.082" stroke-linecap="round" stroke-linejoin="round" paint-order="stroke markers fill"/><path d="M104.617 207.43c-.222-.136-.116-64.138.15-90.09l.12-11.808H207.56v2.16c0 2.657-.275 6.355-.764 10.269-3.618 28.98-19.741 55.342-43.874 71.733-13.472 9.15-28.41 14.85-44.504 16.98-4.412.583-13.293 1.07-13.8.757zm-6.094-.106a919.4 919.4 0 0 0-3.06-.269c-3.24-.28-8.063-1.023-11.767-1.814-33.358-7.123-61.08-30.538-73.708-62.253-4.34-10.9-6.686-22.07-7.217-34.349l-.134-3.107h100.529l-.121 23.758c-.067 13.067-.176 35.998-.243 50.958l-.122 27.2-1.744-.03c-.959-.018-2.045-.06-2.413-.094z" fill="red" stroke="#2b0000" stroke-width="3.082" stroke-linecap="round" stroke-linejoin="round" paint-order="stroke markers fill"/><path d="M104.718 157.907c.07-27.281.179-50.226.24-50.989l.112-1.386h102.49l-.002 1.004c-.005 1.919-.374 7.375-.677 10.013-3.515 30.641-20.555 58.102-46.283 74.588-15.932 10.208-33.22 15.56-52.49 16.248l-3.518.125z" fill="#fff" stroke="#2b0000" stroke-width="3.082" stroke-linecap="round" stroke-linejoin="round" paint-order="stroke markers fill"/></g></svg>